<svg xmlns="http://www.w3.org/2000/svg" width="511.99" height="507.409" viewBox="0 0 511.99 507.409">
  <g id="feat-4" transform="translate(-0.002 -2.296)">
    <g id="Group_10" data-name="Group 10">
      <g id="Group_9" data-name="Group 9">
        <path id="Path_48" data-name="Path 48" d="M431.86,179.437l-77.982-36.963a51.022,51.022,0,0,0,13.235-46.65c-6.156-28.033-32.458-45.271-59.873-39.255a9.271,9.271,0,0,0-2.885,1.175c-1.141-.446-2.3-.861-3.479-1.2-14.645-4.255-29.895-.132-41.834,11.315L137.785,184.115c-13.106,12.568-20.91,24.083-26.094,38.5-1.358,3.776-2.6,7.636-3.8,11.37-3.96,12.328-7.728,24.016-15.353,32.565l-7.2-7.512a23.162,23.162,0,0,0-32.7-.689L7.109,302.011A23.149,23.149,0,0,0,6.422,334.7L167.4,502.6a22.967,22.967,0,0,0,16.206,7.1c.168,0,.334.005.5.005a22.956,22.956,0,0,0,15.989-6.416l26.419-25.331a9.316,9.316,0,1,0-12.894-13.449L187.2,489.841a4.526,4.526,0,0,1-3.2,1.232,4.48,4.48,0,0,1-3.15-1.366l-38.543-40.2,52.022-49.878,38.543,40.2a9.315,9.315,0,0,0,13.448-12.893L236.052,416.23l64.64-60.674a9.316,9.316,0,1,0-12.751-13.585L223.157,402.78,105.469,280.036c10.929-11.621,15.621-26.211,20.163-40.349,1.205-3.75,2.341-7.291,3.591-10.766,4.2-11.689,10.418-20.774,21.456-31.358L271.936,81.3c7.107-6.815,15.539-9.256,23.74-6.873A24.331,24.331,0,0,1,312.353,91.6c2.139,8.709-1.32,17.952-9.813,26.1L217,199.724a9.316,9.316,0,0,0-.278,13.171l6.534,6.815a28.451,28.451,0,0,1-.846,40.226l-27.26,26.136a9.316,9.316,0,1,0,12.894,13.449l27.26-26.136a47.082,47.082,0,0,0,1.4-66.568l-.088-.091,69.248-66.4L423.881,196.27a9.314,9.314,0,1,0,7.979-16.833ZM181.432,386.182,129.41,436.06,19.872,321.814A4.552,4.552,0,0,1,20,315.46L65.538,271.8a4.6,4.6,0,0,1,3.2-1.232,4.48,4.48,0,0,1,3.15,1.366ZM337.648,132.16a9.324,9.324,0,0,0-1.692,1.818l-16.035-7.6c9.985-11.816,13.814-25.817,10.525-39.214a41.171,41.171,0,0,0-5.313-12.3c11.519,2.747,20.952,12.066,23.784,24.958a32.54,32.54,0,0,1-11.269,32.338Z" fill="#fff"/>
      </g>
    </g>
    <g id="Group_12" data-name="Group 12">
      <g id="Group_11" data-name="Group 11">
        <path id="Path_49" data-name="Path 49" d="M414.876,17.441a9.3,9.3,0,0,0-10.121-8.432L139.4,33.174a20.646,20.646,0,0,0-18.658,22.4l1.587,17.44a9.314,9.314,0,0,0,9.266,8.471c.283,0,.569-.012.856-.039a9.314,9.314,0,0,0,8.432-10.12L139.3,53.885a2.015,2.015,0,0,1,1.795-2.154L406.444,27.563a9.315,9.315,0,0,0,8.432-10.122Z" fill="#fff"/>
      </g>
    </g>
    <g id="Group_14" data-name="Group 14">
      <g id="Group_13" data-name="Group 13">
        <path id="Path_50" data-name="Path 50" d="M511.913,152.815l-12-131.776a20.626,20.626,0,0,0-22.4-18.658L455.051,4.427a9.314,9.314,0,1,0,1.69,18.552L479.2,20.933a2.018,2.018,0,0,1,2.156,1.8l12,131.777a2.017,2.017,0,0,1-1.8,2.154l-28.85,2.627a9.314,9.314,0,0,0,.835,18.59c.283,0,.569-.012.854-.039l28.851-2.627a20.645,20.645,0,0,0,18.658-22.4Z" fill="#fff"/>
      </g>
    </g>
    <g id="Group_16" data-name="Group 16">
      <g id="Group_15" data-name="Group 15">
        <path id="Path_51" data-name="Path 51" d="M467.694,119.963a29.728,29.728,0,0,1-4.135-58.891,9.314,9.314,0,1,0-3.472-18.3,48.358,48.358,0,0,0,6.732,95.8c.149.006.3.01.445.01a9.315,9.315,0,0,0,.43-18.619Z" fill="#fff"/>
      </g>
    </g>
    <g id="Group_18" data-name="Group 18">
      <g id="Group_17" data-name="Group 17">
        <path id="Path_52" data-name="Path 52" d="M215.721,76.022,191.528,64.447a20.634,20.634,0,0,0-27.491,9.7l-39.135,81.8a9.315,9.315,0,0,0,16.806,8.041l39.135-81.8a2.011,2.011,0,0,1,2.644-.934l24.191,11.575a9.316,9.316,0,1,0,8.043-16.806Z" fill="#fff"/>
      </g>
    </g>
    <g id="Group_20" data-name="Group 20">
      <g id="Group_19" data-name="Group 19">
        <path id="Path_53" data-name="Path 53" d="M508.328,222.726a20.476,20.476,0,0,0-10.53-11.741l-20.35-9.736a9.316,9.316,0,1,0-8.042,16.806l20.35,9.736a2.016,2.016,0,0,1,.933,2.643L433.581,349.8a2.023,2.023,0,0,1-2.7.9l-157.2-73.873a9.316,9.316,0,0,0-7.924,16.863L422.9,367.535a20.619,20.619,0,0,0,27.492-9.7L507.5,238.474a20.474,20.474,0,0,0,.828-15.748Z" fill="#fff"/>
      </g>
    </g>
    <g id="Group_22" data-name="Group 22">
      <g id="Group_21" data-name="Group 21">
        <path id="Path_54" data-name="Path 54" d="M355.586,198.929a51.306,51.306,0,1,0-2.1,39.2,51.33,51.33,0,0,0,2.1-39.2Zm-18.908,31.162a32.856,32.856,0,0,1-29.495,18.577,32.344,32.344,0,0,1-14.069-3.209,32.666,32.666,0,1,1,43.564-15.368Z" fill="#fff"/>
      </g>
    </g>
    <g id="Group_24" data-name="Group 24">
      <g id="Group_23" data-name="Group 23">
        <path id="Path_55" data-name="Path 55" d="M462.163,236.769a48.358,48.358,0,0,0-43.234,85.759,9.316,9.316,0,1,0,10.277-15.541,29.728,29.728,0,0,1,26.576-52.716,9.314,9.314,0,1,0,6.381-17.5Z" fill="#fff"/>
      </g>
    </g>
  </g>
</svg>
