<svg xmlns="http://www.w3.org/2000/svg" width="511.997" height="511.999" viewBox="0 0 511.997 511.999">
  <g id="feat-2" transform="translate(-0.003)">
    <g id="Group_6" data-name="Group 6">
      <g id="Group_5" data-name="Group 5">
        <path id="Path_39" data-name="Path 39" d="M512,234.558V69.128A69.2,69.2,0,0,0,442.869,0H277.441A10.664,10.664,0,0,0,269.9,3.124L237.563,35.461q-8.294-.69-16.73-1.1c-71.146-3.45-131.857,8.96-154.665,31.61-9.137,9.075-10.756,18.2-10.507,24.253.9,21.842,27.038,41.488,72.317,54.821l-107.8,107.8a69.3,69.3,0,0,0,0,97.76l140.059,140.06h-10.9a10.667,10.667,0,1,0,0,21.334H362.665a10.667,10.667,0,0,0,0-21.334H260.309L508.874,242.1A10.667,10.667,0,0,0,512,234.558ZM76.977,89.342c-.039-.959-.16-3.88,4.225-8.235C95.91,66.5,144.739,52.4,217.456,55.568l-72.1,72.1C95.895,115.222,77.335,97.991,76.977,89.342ZM244.068,476.737a47.963,47.963,0,0,1-67.591,0L35.261,335.521a47.962,47.962,0,0,1,0-67.59L245.552,57.642c30.865,3.228,59.361,9.437,82.052,18.02,15.049,5.693,25.2,11.572,31.565,16.862a42.537,42.537,0,0,0-11.34,39.713c.048.262.112.522.181.781.027.111.052.223.081.334a.116.116,0,0,0,.009.026,42.673,42.673,0,1,0,30.34-52c-9.035-9.546-23.582-18.214-43.289-25.668-20.087-7.6-44.272-13.446-70.477-17.188l17.185-17.186H442.868a47.849,47.849,0,0,1,47.8,47.8V230.142ZM389.31,104.461A29.413,29.413,0,0,0,389,101.3c.13,0,.257-.02.388-.02a21.333,21.333,0,1,1-17.658,33.288C386.6,124,389.647,112.639,389.31,104.461Z" fill="#fff"/>
        <path id="Path_40" data-name="Path 40" d="M457.45,90.13a10.667,10.667,0,0,0-6.99,13.367,64,64,0,1,1-125.071,19.116,10.667,10.667,0,0,0-21.334,0A85.33,85.33,0,1,0,470.816,97.12,10.664,10.664,0,0,0,457.45,90.13Z" fill="#fff"/>
        <path id="Path_41" data-name="Path 41" d="M443.241,81.562A10.667,10.667,0,0,0,450.932,63.5c-1.75-1.823-3.591-3.578-5.473-5.215a10.667,10.667,0,1,0-14.008,16.09c1.4,1.223,2.783,2.538,4.1,3.9a10.629,10.629,0,0,0,7.69,3.287Z" fill="#fff"/>
        <path id="Path_42" data-name="Path 42" d="M311.212,327.954a71.627,71.627,0,0,0,5.223-8.469,54.444,54.444,0,0,0-4.486-57.347c-11.115-14.925-28.314-21.81-46.006-18.416C253.276,246.151,241.2,253,229.521,259.63c-2.682,1.522-5.216,2.96-7.764,4.352-15.616,8.521-30.525,9.123-39.884,1.609-7.723-6.2-10.293-16.948-6.878-28.745a32.283,32.283,0,0,1,5.044-9.9l17.643,17.645a10.666,10.666,0,1,0,15.084-15.085l-17.014-17.017a80.788,80.788,0,0,1,24.505-10.931,10.668,10.668,0,1,0-5.1-20.717,102.86,102.86,0,0,0-34.8,16.251l-8.151-8.151a10.667,10.667,0,1,0-15.086,15.085l7.666,7.667A55.444,55.444,0,0,0,154.5,230.912c-5.8,20.049-.436,39.71,14.014,51.313,16.3,13.089,40.025,13.27,63.458.483.819-.447,1.639-.909,2.46-1.364L281.6,328.511c-10.256,8.062-21.9,12.006-29.134,9.714a10.667,10.667,0,1,0-6.442,20.338,36.707,36.707,0,0,0,11.119,1.669c13.508,0,27.808-6.724,39.561-16.618l11.264,11.265a10.666,10.666,0,0,0,15.084-15.085Zm-13.7-18.324c-.523,1.005-1.088,1.986-1.672,2.953L253.9,270.647c5.562-2.77,11.006-5.005,16.054-5.973,9.611-1.842,18.676,1.877,24.88,10.206a32.988,32.988,0,0,1,2.675,34.75Z" fill="#fff"/>
        <path id="Path_43" data-name="Path 43" d="M136.523,363.737a10.667,10.667,0,1,0-15.088,15.082l4.364,4.366A10.668,10.668,0,0,0,140.888,368.1Z" fill="#fff"/>
        <path id="Path_44" data-name="Path 44" d="M232.9,414.863l-22.628,22.629-45.255-45.257a10.667,10.667,0,0,0-15.086,15.085l45.257,45.257a21.36,21.36,0,0,0,30.171,0l22.628-22.628A10.668,10.668,0,1,0,232.9,414.863Z" fill="#fff"/>
      </g>
    </g>
  </g>
</svg>
