<svg xmlns="http://www.w3.org/2000/svg" width="40.704" height="28.981" viewBox="0 0 40.704 28.981">
  <g id="feat-1" transform="translate(-3.411 -9.738)">
    <path id="Path_34" data-name="Path 34" d="M3.411,35.693V12.764A3.027,3.027,0,0,1,6.437,9.738h34.65a3.029,3.029,0,0,1,3.028,3.026V35.693a3.029,3.029,0,0,1-3.028,3.026H6.437a3.028,3.028,0,0,1-3.026-3.026Zm38.788,0V12.764a1.113,1.113,0,0,0-1.112-1.111H6.437a1.112,1.112,0,0,0-1.111,1.111V35.693A1.112,1.112,0,0,0,6.437,36.8h34.65A1.112,1.112,0,0,0,42.2,35.693Z" fill="#fff" fill-rule="evenodd"/>
    <path id="Path_35" data-name="Path 35" d="M6.773,13.576a.919.919,0,1,1,.92.917.919.919,0,0,1-.92-.917Zm2.6,0a.919.919,0,1,1,.917.917.919.919,0,0,1-.917-.917Zm2.6,0a.918.918,0,1,1,.917.917.918.918,0,0,1-.917-.917Z" fill="#fff" fill-rule="evenodd"/>
    <path id="Group_22" d="M27.869,34.05V32.488h1.567V34.05Zm2.675,0V32.488h1.565V34.05Zm2.677,0V32.488h1.563V34.05Zm2.675,0V32.488h1.566V34.05Zm-8.027-2.495V29.992h1.567v1.563Zm2.675,0V29.992h1.565v1.563Zm2.677,0V29.992h1.563v1.563Zm2.675,0V29.992h1.566v1.563Z" fill="#fff" fill-rule="evenodd"/>
    <path id="Path_36" data-name="Path 36" d="M27.869,18.311a2.745,2.745,0,0,1,2.753-2.734h4.832a2.733,2.733,0,1,1,0,5.466H30.622a2.743,2.743,0,0,1-2.753-2.732Zm9.272,0a1.683,1.683,0,0,0-1.687-1.67H32.177a2.145,2.145,0,0,1-.119,3.338h3.4a1.681,1.681,0,0,0,1.683-1.668Z" fill="#fff" fill-rule="evenodd"/>
    <path id="Path_37" data-name="Path 37" d="M27.867,25.048a2.745,2.745,0,0,1,2.753-2.734h4.831a2.734,2.734,0,1,1,0,5.467H30.62a2.743,2.743,0,0,1-2.753-2.733ZM33.156,25a2.146,2.146,0,0,1,.738-1.621H30.62a1.669,1.669,0,1,0,0,3.338h3.393A2.136,2.136,0,0,1,33.156,25Z" fill="#fff" fill-rule="evenodd"/>
    <path id="Path_38" data-name="Path 38" d="M7.882,34.05V20.058h2.9V34.05Zm4.328,0V28.334h2.9v5.714Zm4.329,0V22.85h2.9v11.2Zm4.328,0V27.417h2.9v6.628Z" fill="#fff" fill-rule="evenodd"/>
  </g>
</svg>
