<svg xmlns="http://www.w3.org/2000/svg" width="399.095" height="398.211" viewBox="0 0 399.095 398.211">
  <g id="grid-2-white" transform="translate(-383.705 -166.341)">
    <g id="Group_13" data-name="Group 13" opacity="0.05">
      <path id="Path_462" data-name="Path 462" d="M630.42,423.59c3.74-2.53,7.716-4.269,12.331-2.971a53.6,53.6,0,0,1,5.813,2.433,13.662,13.662,0,0,1-2.7-9.976,12.818,12.818,0,0,1,5.133-8.7,13.047,13.047,0,0,1,15.4-.171c5.39,3.845,6.528,9.257,3.642,17.913a14.371,14.371,0,0,1,14.887.025c-1.713-3.592-2.484-6.863-1.6-10.344a13.243,13.243,0,0,1,21.141-7.251c5.093,4.079,6.028,9.478,2.984,17.841a14.3,14.3,0,0,1,15.259-.283c-3.24-6.443-2.156-11.958,2.2-16.962l-.1.062c3.278-2.307,6.75-3.929,10.924-3.322a13.214,13.214,0,0,1,10.226,18.8c-.282.614-.564,1.228-1.054,2.3,5.275-3.313,10.281-3.44,15.573-.634-.568-2.019-1.176-3.73-1.513-5.492-.785-4.084.961-7.488,3.124-10.746l-.1.066c3.128-2.473,6.451-4.433,10.661-4.074.549.048,1.1.064,1.639.165,4.145.788,4.628,1.289,3.686,5.338-1.5,6.428-3.193,12.813-4.942,19.176a2.453,2.453,0,0,1-2.006,1.29c-2.134-.32-4.218-.988-6.452-1.555,2.667,4.6,2.7,9.343.208,14.3l3.776-1.243c-21.523,51.053-57.342,87.269-107.876,109.642-.082-1.246-.2-2.144-.189-3.04.013-.921.149-1.843.232-2.783-2.283-.095-4.37-.183-6.427-.267-.006,2.242-.017,4.5-.026,6.9l3.731-.232a185.388,185.388,0,0,1-52.2,13.543c.333-1.369.636-2.623,1-4.126a14.977,14.977,0,0,1-12.172-.716c.541,1.975,1.041,3.79,1.663,6.056-9.241-.066-17.977-.125-27.532-.19,1.3-3.087,2.307-5.465,3.121-7.4a59.449,59.449,0,0,1-7.415,2.241c-3.822.681-6.955-1.368-10.034-3.289-.209-.27-.418-.535-.625-.8-2.826-3.966-4.26-8.234-2.544-13.054a13.008,13.008,0,0,1,19.025-7.132c.4.222.8.445,1.653.917-3.681-6.721-3.579-12.839,1.827-18.008,4.62-4.411,10.1-4.5,16.24-1.746-2.574-5.1-2.854-9.88-.01-14.92-.991.386-1.653.659-2.325.9a13,13,0,0,1-12.708-1.819c-.622-.452-1.263-.881-1.9-1.32l.07.1c-1.1-2.628-2.827-5.176-3.174-7.9-1.278-10.053,9.015-17.422,18.315-13.353.764.335,1.5.738,2.666,1.315-2.654-4.272-3.327-8.427-1.653-12.73a13.257,13.257,0,0,1,20.688-5.576c.49.378,1.006.719,1.506,1.076,2.813,3.922,4.343,8.134,2.9,13-.311,1.039-.739,2.044-1.264,3.484,4.487-2.784,8.825-2.761,13.65-1.117a15.61,15.61,0,0,1,.93-13.608c-3.693,1.782-7.075,2.328-10.448,1.165a47.5,47.5,0,0,1-5.812-2.883,10.546,10.546,0,0,0-.76-1.337c-4.057-5.278-4.072-12.027-.017-16.949A13.341,13.341,0,0,1,627.11,440.3c.409.2.818.4,1.175.581a51.476,51.476,0,0,1-1.732-6.19c-.677-4.37,1.375-7.891,3.964-11.166ZM574.73,538.7c3.15,5.786,2.685,11.191-1.1,16.46,5.024-3.675,10.235-4.106,16.081-1.391-2.689-4.887-2.579-9.43-.4-14.311C584.134,541.846,579.414,541.337,574.73,538.7Zm90.8-98.649c-2.242-4.862-1.979-9.371.726-14.3-6.085,3.2-11.3,2.658-16.311-.954,3.535,5.121,3.844,10.326.743,16.152,5.012-3.071,9.693-3.149,14.838-.9ZM647.2,444.3c-5.139,3.058-10.027,3.014-15.509-.175,3.2,5.243,3.087,9.906.662,15.115,4.973-2.614,9.538-2.343,14.25-.14C644.352,452.866,644.444,450.469,647.2,444.3Zm-38.146,37.973c-5.424,2.888-10.219,2.63-15.456-.414,3.124,5.108,3.25,9.82.617,15.025a14.875,14.875,0,0,1,14.186-.448c-2.051-4.822-1.864-9.222.653-14.159Zm132.578-41.29c-2.8-5.466-2.416-10.359.779-15.646-5.255,3.512-10.108,3.662-15.454.991a14.831,14.831,0,0,1,.47,13.883c4.995-2.058,9.461-1.934,14.2.776Zm-38.242-.522c-2.441-5.134-2.252-9.8.85-14.967-5.388,3.311-10.218,3.276-15.488.5,2.795,4.773,2.775,9.234.74,14.1a15.353,15.353,0,0,1,13.9.371Zm-95.974,80.523c-4.594,1.832-8.876,1.494-13.512-1.011a14,14,0,0,1,1.214,13.178l11.618-.508c-1.355-3.528-1.036-7.494.68-11.655ZM745.959,445.3c2.181,4.321,2.588,8.346,1.4,12.008,3.8.12,7.56.24,11.187.358a30.734,30.734,0,0,1-.495-5.5,42.815,42.815,0,0,1,1.382-6.317,14.641,14.641,0,0,1-13.474-.545Zm-63.22.7c-3.537,1.605-7.5,1.373-11.878-.529a14.78,14.78,0,0,1,.809,11.78c3.648-.073,7.245-.143,10.277-.2.253-3.454.517-7.2.792-11.047Zm-68.976,55.985c1.989,4.389,2,8.416.517,11.93l10.6-.349c.1-3.144.219-6.752.343-10.447-3.494,1.187-7.294.813-11.46-1.13Zm106.065-44.974c.251-3.411.519-7.064.79-10.747a13.912,13.912,0,0,1-11.236-.19c.267,3.761.541,7.566.789,11.023Zm-67.236,7.6c.275,3.782.554,7.554.823,11.222a32.366,32.366,0,0,1,4.685-.615,32.995,32.995,0,0,1,4.723.588c.205-3.495.413-7.018.628-10.6a14.154,14.154,0,0,1-10.859-.594ZM624.6,551.58c-.038-3.364-.078-6.691-.113-9.719-3.088-.125-6.458-.259-9.372-.379-.059,3.293-.127,6.829-.191,10.344a32.424,32.424,0,0,1,4.629-.707,38.6,38.6,0,0,1,5.047.461Zm9.668-66.933c.028,3.261.061,6.864.09,10.164l9.271-.243c.057-3.136.119-6.509.175-9.518-3.137-.132-6.516-.277-9.535-.4Zm66.151-9.707c.169-2.768.353-5.745.516-8.406l-9.431.115c.123,2.611.259,5.529.386,8.224Zm29.155-8.14c.087,2.605.183,5.547.276,8.339,2.649.051,5.591.1,8.324.156.137-2.871.289-5.95.427-8.716-2.8.07-5.9.145-9.026.221Zm-95.3,65.106,8.346-.543c.017-2.53.034-5.139.047-7.526-2.868-.2-5.723-.388-8.36-.563-.007,2.79-.022,5.726-.032,8.632Zm46.6-46.009c-2.808-.1-5.584-.2-8.194-.286.037,2.686.07,5.46.1,8.156l7.938-.214c.051-2.509.1-5.138.154-7.653Zm-19.4,26.423c.132-2.547.27-5.2.4-7.644-2.785-.113-5.562-.228-8.191-.334.124,2.594.255,5.407.381,8.113Zm49.916-19.047c2.518.018,4.962.032,7.259.045.107-2.486.213-4.883.311-7.142l-7.815-.167c.076,2.386.155,4.784.24,7.264ZM692.7,505.395c.131,2.043.25,3.867.369,5.719l5.7-.009c.157-1.978.308-3.861.458-5.737C697.016,505.377,694.932,505.387,692.7,505.395Zm-19.22,19.289c.059,1.919.114,3.668.166,5.419,1.823-.1,3.52-.2,5.36-.3.033-1.642.064-3.242.1-4.774C677.152,524.909,675.44,524.806,673.48,524.684Z" fill="rgba(255,255,255,0.75)" fill-rule="evenodd"/>
      <path id="Path_463" data-name="Path 463" d="M724.906,405.149c-.646.377-1.321.709-1.929,1.138a12.859,12.859,0,1,1,3.006-3.019c-.43.62-.787,1.293-1.173,1.943Z" fill="rgba(255,255,255,0.75)" fill-rule="evenodd"/>
      <path id="Path_464" data-name="Path 464" d="M573.079,498.928c2.157,3.122,4,6.309,3.617,10.361a12.921,12.921,0,1,1-5.272-11.412c.561.4,1.15.769,1.725,1.152Z" fill="rgba(255,255,255,0.75)" fill-rule="evenodd"/>
      <path id="Path_465" data-name="Path 465" d="M665.058,393.4a12.7,12.7,0,1,1,2.008,9.539,12.759,12.759,0,0,1-2.008-9.539Z" fill="rgba(255,255,255,0.75)" fill-rule="evenodd"/>
      <path id="Path_466" data-name="Path 466" d="M762.09,406.115c-.663.372-1.344.713-1.984,1.117a12.848,12.848,0,1,1,3.2-2.928c-.467.6-.879,1.253-1.313,1.879Z" fill="rgba(255,255,255,0.75)" fill-rule="evenodd"/>
      <path id="Path_467" data-name="Path 467" d="M604.027,420.74A12.74,12.74,0,1,1,589.27,431a12.74,12.74,0,0,1,14.757-10.26Z" fill="rgba(255,255,255,0.75)" fill-rule="evenodd"/>
      <path id="Path_468" data-name="Path 468" d="M542.838,540.032a12.722,12.722,0,1,1,14.7-10.375,12.722,12.722,0,0,1-14.7,10.375Z" fill="rgba(255,255,255,0.75)" fill-rule="evenodd"/>
      <path id="Path_469" data-name="Path 469" d="M570.567,449.624a12.742,12.742,0,1,1,10.144,14.84,12.742,12.742,0,0,1-10.144-14.84Z" fill="rgba(255,255,255,0.75)" fill-rule="evenodd"/>
      <path id="Path_470" data-name="Path 470" d="M630.517,423.522c-2.7,1.856-5.353,3.717-8.857,3.844a12.685,12.685,0,1,1,10.065-5.951c-.445.722-.876,1.451-1.311,2.174Z" fill="rgba(255,255,255,0.75)" fill-rule="evenodd"/>
      <path id="Path_471" data-name="Path 471" d="M566.151,458.531A12.675,12.675,0,1,1,551.4,468.563a12.675,12.675,0,0,1,14.751-10.032Z" fill="rgba(255,255,255,0.75)" fill-rule="evenodd"/>
      <path id="Path_472" data-name="Path 472" d="M627.477,393.323a12.5,12.5,0,1,1,9.926,14.524,12.5,12.5,0,0,1-9.926-14.524Z" fill="rgba(255,255,255,0.75)" fill-rule="evenodd"/>
      <path id="Path_473" data-name="Path 473" d="M721.908,375.018a12.346,12.346,0,1,1,2.021,9.283,12.433,12.433,0,0,1-2.021-9.283Z" fill="rgba(255,255,255,0.75)" fill-rule="evenodd"/>
      <path id="Path_474" data-name="Path 474" d="M694.627,389.368a12.346,12.346,0,1,1,9.288-2.016A12.434,12.434,0,0,1,694.627,389.368Z" fill="rgba(255,255,255,0.75)" fill-rule="evenodd"/>
      <path id="Path_475" data-name="Path 475" d="M532.871,487.56a12.347,12.347,0,1,1,2.06,9.278,12.435,12.435,0,0,1-2.06-9.278Z" fill="rgba(255,255,255,0.75)" fill-rule="evenodd"/>
      <path id="Path_476" data-name="Path 476" d="M646.852,374.9a12.249,12.249,0,1,1,2.052,9.172,12.271,12.271,0,0,1-2.052-9.172Z" fill="rgba(255,255,255,0.75)" fill-rule="evenodd"/>
      <path id="Path_477" data-name="Path 477" d="M524.235,520.359a12.233,12.233,0,1,1,14.2-9.738A12.233,12.233,0,0,1,524.235,520.359Z" fill="rgba(255,255,255,0.75)" fill-rule="evenodd"/>
      <path id="Path_478" data-name="Path 478" d="M552.417,431.069a12.208,12.208,0,1,1,9.785,14.172,12.208,12.208,0,0,1-9.785-14.172Z" fill="rgba(255,255,255,0.75)" fill-rule="evenodd"/>
      <path id="Path_479" data-name="Path 479" d="M571.228,411.839a12.208,12.208,0,1,1,9.664,14.255A12.208,12.208,0,0,1,571.228,411.839Z" fill="rgba(255,255,255,0.75)" fill-rule="evenodd"/>
      <path id="Path_480" data-name="Path 480" d="M599.678,407.373a12.137,12.137,0,1,1,14.189-9.728,12.137,12.137,0,0,1-14.189,9.728Z" fill="rgba(255,255,255,0.75)" fill-rule="evenodd"/>
      <path id="Path_481" data-name="Path 481" d="M717.662,346.518a12.137,12.137,0,1,1-14.126,9.825A12.137,12.137,0,0,1,717.662,346.518Z" fill="rgba(255,255,255,0.75)" fill-rule="evenodd"/>
      <path id="Path_482" data-name="Path 482" d="M543.144,463.724a12.09,12.09,0,1,1,14-9.674,12.09,12.09,0,0,1-14,9.674Z" fill="rgba(255,255,255,0.75)" fill-rule="evenodd"/>
      <path id="Path_483" data-name="Path 483" d="M760.1,373.966a11.514,11.514,0,0,1,7.83-8.273,12,12,0,0,1,12.128,2.278,6.388,6.388,0,0,1,2.64,5.619c-.182,2.93-.315,5.867-.625,8.785-.441,4.185-5.016,7.359-10.286,7.265C764.173,389.5,758.52,382.565,760.1,373.966Z" fill="rgba(255,255,255,0.75)" fill-rule="evenodd"/>
      <path id="Path_484" data-name="Path 484" d="M741.481,356.505a12.027,12.027,0,1,1,9.7,13.917,12.027,12.027,0,0,1-9.7-13.917Z" fill="rgba(255,255,255,0.75)" fill-rule="evenodd"/>
      <path id="Path_485" data-name="Path 485" d="M665.942,355.889a11.888,11.888,0,1,1,1.679,9.012A11.962,11.962,0,0,1,665.942,355.889Z" fill="rgba(255,255,255,0.75)" fill-rule="evenodd"/>
      <path id="Path_486" data-name="Path 486" d="M513.251,544.034a13.3,13.3,0,0,1,10.826-10.2,12.348,12.348,0,0,1,10.163,21.259c-1.813,1.658-3.512,2.9-6.4,1.534a57.105,57.105,0,0,0-10.778-3.427,3.354,3.354,0,0,1-2.752-2.77C513.825,548.328,513.591,546.17,513.251,544.034Z" fill="rgba(255,255,255,0.75)" fill-rule="evenodd"/>
      <path id="Path_487" data-name="Path 487" d="M609.375,374.785a11.8,11.8,0,1,1,1.943,8.954A11.913,11.913,0,0,1,609.375,374.785Z" fill="rgba(255,255,255,0.75)" fill-rule="evenodd"/>
      <path id="Path_488" data-name="Path 488" d="M518.866,529.387a11.766,11.766,0,1,1-1.93-8.844A11.877,11.877,0,0,1,518.866,529.387Z" fill="rgba(255,255,255,0.75)" fill-rule="evenodd"/>
      <path id="Path_489" data-name="Path 489" d="M528.6,458.787a11.764,11.764,0,1,1-8.853,1.9,11.877,11.877,0,0,1,8.853-1.9Z" fill="rgba(255,255,255,0.75)" fill-rule="evenodd"/>
      <path id="Path_490" data-name="Path 490" d="M637.77,369.3a11.755,11.755,0,1,1,13.677-9.372A11.755,11.755,0,0,1,637.77,369.3Z" fill="rgba(255,255,255,0.75)" fill-rule="evenodd"/>
      <path id="Path_491" data-name="Path 491" d="M495.754,487.434a11.726,11.726,0,1,1,9.438,13.633A11.845,11.845,0,0,1,495.754,487.434Z" fill="rgba(255,255,255,0.75)" fill-rule="evenodd"/>
      <path id="Path_492" data-name="Path 492" d="M722.76,337.35a11.691,11.691,0,1,1,9.6,13.513,11.819,11.819,0,0,1-9.6-13.513Z" fill="rgba(255,255,255,0.75)" fill-rule="evenodd"/>
      <path id="Path_493" data-name="Path 493" d="M685.454,337.175a11.648,11.648,0,1,1,9.23,13.545,11.648,11.648,0,0,1-9.23-13.545Z" fill="rgba(255,255,255,0.75)" fill-rule="evenodd"/>
      <path id="Path_494" data-name="Path 494" d="M534.06,411.874a11.471,11.471,0,1,1,1.809,8.637,11.52,11.52,0,0,1-1.809-8.637Z" fill="rgba(255,255,255,0.75)" fill-rule="evenodd"/>
      <path id="Path_495" data-name="Path 495" d="M562.3,406.7a11.476,11.476,0,1,1,8.66-1.695A11.521,11.521,0,0,1,562.3,406.7Z" fill="rgba(255,255,255,0.75)" fill-rule="evenodd"/>
      <path id="Path_496" data-name="Path 496" d="M661,327.9a11.312,11.312,0,1,1-8.5,1.866A11.422,11.422,0,0,1,661,327.9Z" fill="rgba(255,255,255,0.75)" fill-rule="evenodd"/>
      <path id="Path_497" data-name="Path 497" d="M528.674,421.883a11.419,11.419,0,1,1-13.289,9.032,11.3,11.3,0,0,1,13.289-9.032Z" fill="rgba(255,255,255,0.75)" fill-rule="evenodd"/>
      <path id="Path_498" data-name="Path 498" d="M594.469,378.976a11.31,11.31,0,1,1-1.629-8.55,11.423,11.423,0,0,1,1.629,8.55Z" fill="rgba(255,255,255,0.75)" fill-rule="evenodd"/>
      <path id="Path_499" data-name="Path 499" d="M486.633,519.41a11.277,11.277,0,1,1,8.5-1.855A11.384,11.384,0,0,1,486.633,519.41Z" fill="rgba(255,255,255,0.75)" fill-rule="evenodd"/>
      <path id="Path_500" data-name="Path 500" d="M613.655,359.816a11.308,11.308,0,1,1-1.767-8.521,11.333,11.333,0,0,1,1.767,8.521Z" fill="rgba(255,255,255,0.75)" fill-rule="evenodd"/>
      <path id="Path_501" data-name="Path 501" d="M509.411,440.556a11.313,11.313,0,1,1-13.108,9.027,11.313,11.313,0,0,1,13.108-9.027Z" fill="rgba(255,255,255,0.75)" fill-rule="evenodd"/>
      <path id="Path_502" data-name="Path 502" d="M704.563,318.667a11.224,11.224,0,1,1,9.159,13.015A11.352,11.352,0,0,1,704.563,318.667Z" fill="rgba(255,255,255,0.75)" fill-rule="evenodd"/>
      <path id="Path_503" data-name="Path 503" d="M755.345,309.729a11.18,11.18,0,1,1-12.888,9.011,11.293,11.293,0,0,1,12.888-9.011Z" fill="rgba(255,255,255,0.75)" fill-rule="evenodd"/>
      <path id="Path_504" data-name="Path 504" d="M477.778,468.308a11.124,11.124,0,1,1,8.824,12.969A11.124,11.124,0,0,1,477.778,468.308Z" fill="rgba(255,255,255,0.75)" fill-rule="evenodd"/>
      <path id="Path_505" data-name="Path 505" d="M623.186,328.078a11.123,11.123,0,1,1-12.891,8.936,11.123,11.123,0,0,1,12.891-8.936Z" fill="rgba(255,255,255,0.75)" fill-rule="evenodd"/>
      <path id="Path_506" data-name="Path 506" d="M774.2,328.125c4.748,1.38,5.908,1.838,6.193,6.456.193,3.134.91,6.238,1.067,9.372a5.451,5.451,0,0,1-1.262,3.637,11.326,11.326,0,0,1-14.455,1.476,11.521,11.521,0,0,1,8.457-20.941Z" fill="rgba(255,255,255,0.75)" fill-rule="evenodd"/>
      <path id="Path_507" data-name="Path 507" d="M666.911,318.515a11,11,0,1,1,1.773,8.278A11.049,11.049,0,0,1,666.911,318.515Z" fill="rgba(255,255,255,0.75)" fill-rule="evenodd"/>
      <path id="Path_508" data-name="Path 508" d="M524.733,405.945a10.854,10.854,0,1,1,12.637-8.568,10.854,10.854,0,0,1-12.637,8.568Z" fill="rgba(255,255,255,0.75)" fill-rule="evenodd"/>
      <path id="Path_509" data-name="Path 509" d="M642.468,309.81a10.835,10.835,0,1,1-12.688,8.516,10.835,10.835,0,0,1,12.688-8.516Z" fill="rgba(255,255,255,0.75)" fill-rule="evenodd"/>
      <path id="Path_510" data-name="Path 510" d="M547.39,365.953a10.834,10.834,0,1,1-12.607,8.636A10.834,10.834,0,0,1,547.39,365.953Z" fill="rgba(255,255,255,0.75)" fill-rule="evenodd"/>
      <path id="Path_511" data-name="Path 511" d="M562.852,368.216a10.809,10.809,0,1,1,12.487-8.817A10.809,10.809,0,0,1,562.852,368.216Z" fill="rgba(255,255,255,0.75)" fill-rule="evenodd"/>
      <path id="Path_512" data-name="Path 512" d="M509.46,403.217a10.808,10.808,0,1,1-12.553,8.726,10.808,10.808,0,0,1,12.553-8.726Z" fill="rgba(255,255,255,0.75)" fill-rule="evenodd"/>
      <path id="Path_513" data-name="Path 513" d="M467.526,500.038a10.808,10.808,0,1,1,12.563-8.71,10.808,10.808,0,0,1-12.563,8.71Z" fill="rgba(255,255,255,0.75)" fill-rule="evenodd"/>
      <path id="Path_514" data-name="Path 514" d="M736.592,291.453a10.737,10.737,0,1,1-12.365,8.67,10.866,10.866,0,0,1,12.365-8.67Z" fill="rgba(255,255,255,0.75)" fill-rule="evenodd"/>
      <path id="Path_515" data-name="Path 515" d="M695.238,311.979A10.685,10.685,0,1,1,707.56,303.3,10.685,10.685,0,0,1,695.238,311.979Z" fill="rgba(255,255,255,0.75)" fill-rule="evenodd"/>
      <path id="Path_516" data-name="Path 516" d="M486.754,443.41a10.617,10.617,0,1,1,12.427-8.427,10.617,10.617,0,0,1-12.427,8.427Z" fill="rgba(255,255,255,0.75)" fill-rule="evenodd"/>
      <path id="Path_517" data-name="Path 517" d="M593.772,341.12a10.611,10.611,0,1,1-8.155-12.6,10.611,10.611,0,0,1,8.155,12.6Z" fill="rgba(255,255,255,0.75)" fill-rule="evenodd"/>
      <path id="Path_518" data-name="Path 518" d="M467.991,461.86a10.33,10.33,0,1,1,7.868-1.524A10.418,10.418,0,0,1,467.991,461.86Z" fill="rgba(255,255,255,0.75)" fill-rule="evenodd"/>
      <path id="Path_519" data-name="Path 519" d="M648.94,299.505a10.335,10.335,0,1,1,1.709,7.829A10.417,10.417,0,0,1,648.94,299.505Z" fill="rgba(255,255,255,0.75)" fill-rule="evenodd"/>
      <path id="Path_520" data-name="Path 520" d="M604.42,310.093a10.39,10.39,0,1,1-12.054,8.259,10.39,10.39,0,0,1,12.054-8.259Z" fill="rgba(255,255,255,0.75)" fill-rule="evenodd"/>
      <path id="Path_521" data-name="Path 521" d="M440.882,468.455a10.146,10.146,0,1,1,1.689,7.608,10.147,10.147,0,0,1-1.689-7.608Z" fill="rgba(255,255,255,0.75)" fill-rule="evenodd"/>
      <path id="Path_522" data-name="Path 522" d="M743.591,281.151a10.151,10.151,0,1,1,1.7,7.6,10.148,10.148,0,0,1-1.7-7.6Z" fill="rgba(255,255,255,0.75)" fill-rule="evenodd"/>
      <path id="Path_523" data-name="Path 523" d="M705.767,280.956a10.146,10.146,0,1,1,1.648,7.615A10.146,10.146,0,0,1,705.767,280.956Z" fill="rgba(255,255,255,0.75)" fill-rule="evenodd"/>
      <path id="Path_524" data-name="Path 524" d="M517.01,355.563a10.016,10.016,0,1,1,7.908,11.7,9.9,9.9,0,0,1-7.908-11.7Z" fill="rgba(255,255,255,0.75)" fill-rule="evenodd"/>
      <path id="Path_525" data-name="Path 525" d="M668.035,280.974a10.015,10.015,0,1,1,8.138,11.542,9.9,9.9,0,0,1-8.138-11.542Z" fill="rgba(255,255,255,0.75)" fill-rule="evenodd"/>
      <path id="Path_526" data-name="Path 526" d="M498.246,374.223a9.983,9.983,0,1,1,1.506,7.518A10.069,10.069,0,0,1,498.246,374.223Z" fill="rgba(255,255,255,0.75)" fill-rule="evenodd"/>
      <path id="Path_527" data-name="Path 527" d="M619.543,311.092a9.981,9.981,0,1,1,7.507-1.551A10.07,10.07,0,0,1,619.543,311.092Z" fill="rgba(255,255,255,0.75)" fill-rule="evenodd"/>
      <path id="Path_528" data-name="Path 528" d="M535.737,337.025a9.973,9.973,0,1,1,8.135,11.577,9.871,9.871,0,0,1-8.135-11.577Z" fill="rgba(255,255,255,0.75)" fill-rule="evenodd"/>
      <path id="Path_529" data-name="Path 529" d="M479.069,393.364a9.975,9.975,0,1,1,8.089,11.6,9.869,9.869,0,0,1-8.089-11.6Z" fill="rgba(255,255,255,0.75)" fill-rule="evenodd"/>
      <path id="Path_530" data-name="Path 530" d="M471.924,404.076a9.89,9.89,0,1,1-11.487,7.984,9.89,9.89,0,0,1,11.487-7.984Z" fill="rgba(255,255,255,0.75)" fill-rule="evenodd"/>
      <path id="Path_531" data-name="Path 531" d="M555.1,318.017a9.861,9.861,0,1,1,8.057,11.432A9.861,9.861,0,0,1,555.1,318.017Z" fill="rgba(255,255,255,0.75)" fill-rule="evenodd"/>
      <path id="Path_532" data-name="Path 532" d="M638.877,292.293a9.827,9.827,0,1,1,11.322-7.909,9.948,9.948,0,0,1-11.322,7.909Z" fill="rgba(255,255,255,0.75)" fill-rule="evenodd"/>
      <path id="Path_533" data-name="Path 533" d="M452.751,422.833a9.716,9.716,0,1,1-11.318,7.864A9.716,9.716,0,0,1,452.751,422.833Z" fill="rgba(255,255,255,0.75)" fill-rule="evenodd"/>
      <path id="Path_534" data-name="Path 534" d="M581.782,310.534a9.631,9.631,0,1,1,11.193-7.612,9.631,9.631,0,0,1-11.193,7.612Z" fill="rgba(255,255,255,0.75)" fill-rule="evenodd"/>
      <path id="Path_535" data-name="Path 535" d="M725.515,262.454A9.566,9.566,0,1,1,733.17,273.6a9.458,9.458,0,0,1-7.655-11.146Z" fill="rgba(255,255,255,0.75)" fill-rule="evenodd"/>
      <path id="Path_536" data-name="Path 536" d="M687.7,262.492a9.518,9.518,0,1,1,7.863,10.979,9.4,9.4,0,0,1-7.863-10.979Z" fill="rgba(255,255,255,0.75)" fill-rule="evenodd"/>
      <path id="Path_537" data-name="Path 537" d="M433.956,442.256a9.427,9.427,0,1,1-11.012,7.514,9.427,9.427,0,0,1,11.012-7.514Z" fill="rgba(255,255,255,0.75)" fill-rule="evenodd"/>
      <path id="Path_538" data-name="Path 538" d="M660.882,254.693a9.4,9.4,0,1,1-10.9,7.671,9.4,9.4,0,0,1,10.9-7.671Z" fill="rgba(255,255,255,0.75)" fill-rule="evenodd"/>
      <path id="Path_539" data-name="Path 539" d="M600.972,291.718a9.4,9.4,0,1,1,10.973-7.569A9.4,9.4,0,0,1,600.972,291.718Z" fill="rgba(255,255,255,0.75)" fill-rule="evenodd"/>
      <path id="Path_540" data-name="Path 540" d="M499.094,337.028a9.247,9.247,0,1,1,7.449,10.8A9.247,9.247,0,0,1,499.094,337.028Z" fill="rgba(255,255,255,0.75)" fill-rule="evenodd"/>
      <path id="Path_541" data-name="Path 541" d="M498.04,359.277a9.24,9.24,0,1,1-7.116-11.014,9.24,9.24,0,0,1,7.116,11.014Z" fill="rgba(255,255,255,0.75)" fill-rule="evenodd"/>
      <path id="Path_542" data-name="Path 542" d="M479.289,377.757a9.109,9.109,0,1,1-1.337-6.864A9.161,9.161,0,0,1,479.289,377.757Z" fill="rgba(255,255,255,0.75)" fill-rule="evenodd"/>
      <path id="Path_543" data-name="Path 543" d="M528.662,310.662a9.093,9.093,0,1,1-10.619,7.25,8.986,8.986,0,0,1,10.619-7.25Z" fill="rgba(255,255,255,0.75)" fill-rule="evenodd"/>
      <path id="Path_544" data-name="Path 544" d="M440.853,504.783c2.008-4.743,5.673-7.293,10.054-7.182a10.475,10.475,0,0,1,9.687,7,10.636,10.636,0,0,1-3.159,11.529c-1.518,1.322-2.771,1.561-4.348.049C449.039,512.3,444.891,508.529,440.853,504.783Z" fill="rgba(255,255,255,0.75)" fill-rule="evenodd"/>
      <path id="Path_545" data-name="Path 545" d="M452.581,386.146a8.926,8.926,0,1,1-6.719,1.468,9,9,0,0,1,6.719-1.468Z" fill="rgba(255,255,255,0.75)" fill-rule="evenodd"/>
      <path id="Path_546" data-name="Path 546" d="M619.94,272.189a8.955,8.955,0,1,1,6.707-1.485A8.971,8.971,0,0,1,619.94,272.189Z" fill="rgba(255,255,255,0.75)" fill-rule="evenodd"/>
      <path id="Path_547" data-name="Path 547" d="M547.664,292.172a8.956,8.956,0,1,1-6.7,1.515,8.972,8.972,0,0,1,6.7-1.515Z" fill="rgba(255,255,255,0.75)" fill-rule="evenodd"/>
      <path id="Path_548" data-name="Path 548" d="M717.5,236.119a8.953,8.953,0,1,1-6.72,1.433,8.973,8.973,0,0,1,6.72-1.433Z" fill="rgba(255,255,255,0.75)" fill-rule="evenodd"/>
      <path id="Path_549" data-name="Path 549" d="M423.61,412.079a8.871,8.871,0,1,1,7.123,10.328,8.991,8.991,0,0,1-7.123-10.328Z" fill="rgba(255,255,255,0.75)" fill-rule="evenodd"/>
      <path id="Path_550" data-name="Path 550" d="M680.1,236.172a8.872,8.872,0,1,1-10.329,7.123,8.992,8.992,0,0,1,10.329-7.123Z" fill="rgba(255,255,255,0.75)" fill-rule="evenodd"/>
      <path id="Path_551" data-name="Path 551" d="M556.163,280.9a8.816,8.816,0,1,1,7.3,10.16,8.924,8.924,0,0,1-7.3-10.16Z" fill="rgba(255,255,255,0.75)" fill-rule="evenodd"/>
      <path id="Path_552" data-name="Path 552" d="M632.269,243.176a8.545,8.545,0,1,1,6.745,9.98,8.448,8.448,0,0,1-6.745-9.98Z" fill="rgba(255,255,255,0.75)" fill-rule="evenodd"/>
      <path id="Path_553" data-name="Path 553" d="M404.758,430.73a8.543,8.543,0,1,1,6.813,9.927,8.445,8.445,0,0,1-6.813-9.927Z" fill="rgba(255,255,255,0.75)" fill-rule="evenodd"/>
      <path id="Path_554" data-name="Path 554" d="M575.76,261.843A8.5,8.5,0,1,1,577.2,268.2,8.483,8.483,0,0,1,575.76,261.843Z" fill="rgba(255,255,255,0.75)" fill-rule="evenodd"/>
      <path id="Path_555" data-name="Path 555" d="M477.47,534.377l-17.9-12.686c2.489-3.979,5.71-6.035,10.075-5.891a10.432,10.432,0,0,1,10,6.967C481.252,526.815,480.429,530.567,477.47,534.377Z" fill="rgba(255,255,255,0.75)" fill-rule="evenodd"/>
      <path id="Path_556" data-name="Path 556" d="M435.086,498.565c-3.562-4.318-7.024-8.572-10.561-12.759-1.023-1.213-.608-2.05.275-3.025a9.815,9.815,0,0,1,17.072,6.947C441.827,493.635,439.248,497.065,435.086,498.565Z" fill="rgba(255,255,255,0.75)" fill-rule="evenodd"/>
      <path id="Path_557" data-name="Path 557" d="M462.128,337.127a8.349,8.349,0,1,1,6.636,9.669,8.461,8.461,0,0,1-6.636-9.669Z" fill="rgba(255,255,255,0.75)" fill-rule="evenodd"/>
      <path id="Path_558" data-name="Path 558" d="M497.273,320.931a8.265,8.265,0,1,1-6.615-9.586,8.265,8.265,0,0,1,6.615,9.586Z" fill="rgba(255,255,255,0.75)" fill-rule="evenodd"/>
      <path id="Path_559" data-name="Path 559" d="M698.7,218.1a8.266,8.266,0,1,1-9.608,6.586A8.266,8.266,0,0,1,698.7,218.1Z" fill="rgba(255,255,255,0.75)" fill-rule="evenodd"/>
      <path id="Path_560" data-name="Path 560" d="M509.881,292.867a8.174,8.174,0,1,1-9.6,6.511,8.087,8.087,0,0,1,9.6-6.511Z" fill="rgba(255,255,255,0.75)" fill-rule="evenodd"/>
      <path id="Path_561" data-name="Path 561" d="M452.6,349.131a8.173,8.173,0,1,1-9.483,6.682,8.08,8.08,0,0,1,9.483-6.682Z" fill="rgba(255,255,255,0.75)" fill-rule="evenodd"/>
      <path id="Path_562" data-name="Path 562" d="M440.395,377.311a8.067,8.067,0,1,1-6.463-9.4,7.969,7.969,0,0,1,6.463,9.4Z" fill="rgba(255,255,255,0.75)" fill-rule="evenodd"/>
      <path id="Path_563" data-name="Path 563" d="M594.882,243.253a8.065,8.065,0,1,1,6.554,9.335,7.973,7.973,0,0,1-6.554-9.335Z" fill="rgba(255,255,255,0.75)" fill-rule="evenodd"/>
      <path id="Path_564" data-name="Path 564" d="M519.2,280.362a7.995,7.995,0,1,1,1.333,6.036,8.032,8.032,0,0,1-1.333-6.036Z" fill="rgba(255,255,255,0.75)" fill-rule="evenodd"/>
      <path id="Path_565" data-name="Path 565" d="M658.041,234.029a8,8,0,1,1,6.024-1.386A8.032,8.032,0,0,1,658.041,234.029Z" fill="rgba(255,255,255,0.75)" fill-rule="evenodd"/>
      <path id="Path_566" data-name="Path 566" d="M405.878,393.585a7.915,7.915,0,1,1,6.462,9.188A8.044,8.044,0,0,1,405.878,393.585Z" fill="rgba(255,255,255,0.75)" fill-rule="evenodd"/>
      <path id="Path_567" data-name="Path 567" d="M538.573,261.7a7.847,7.847,0,1,1,6.176,9.168,7.847,7.847,0,0,1-6.176-9.168Z" fill="rgba(255,255,255,0.75)" fill-rule="evenodd"/>
      <path id="Path_568" data-name="Path 568" d="M614.041,224.645a7.612,7.612,0,1,1,6.16,8.826,7.519,7.519,0,0,1-6.16-8.826Z" fill="rgba(255,255,255,0.75)" fill-rule="evenodd"/>
      <path id="Path_569" data-name="Path 569" d="M775.719,311.982c-5.769,1.684-11.081-.693-13.245-5.665a10.7,10.7,0,0,1,4.067-13.208c1.59-1.026,2.48-1.118,3.16,1.028C771.595,300.113,773.692,306.026,775.719,311.982Z" fill="rgba(255,255,255,0.75)" fill-rule="evenodd"/>
      <path id="Path_570" data-name="Path 570" d="M677.247,214.384a7.451,7.451,0,1,1,8.681-5.826,7.586,7.586,0,0,1-8.681,5.826Z" fill="rgba(255,255,255,0.75)" fill-rule="evenodd"/>
      <path id="Path_571" data-name="Path 571" d="M557.6,243.239a7.5,7.5,0,1,1,6.117,8.666A7.587,7.587,0,0,1,557.6,243.239Z" fill="rgba(255,255,255,0.75)" fill-rule="evenodd"/>
      <path id="Path_572" data-name="Path 572" d="M463.476,299.375a7.134,7.134,0,1,1,5.615,8.385,7.038,7.038,0,0,1-5.615-8.385Z" fill="rgba(255,255,255,0.75)" fill-rule="evenodd"/>
      <path id="Path_573" data-name="Path 573" d="M444.708,318.059a7.19,7.19,0,1,1,5.634,8.413,7.085,7.085,0,0,1-5.634-8.413Z" fill="rgba(255,255,255,0.75)" fill-rule="evenodd"/>
      <path id="Path_574" data-name="Path 574" d="M487.846,288.581a7.093,7.093,0,1,1,8.346-5.411A7.093,7.093,0,0,1,487.846,288.581Z" fill="rgba(255,255,255,0.75)" fill-rule="evenodd"/>
      <path id="Path_575" data-name="Path 575" d="M425.644,336.583a7.093,7.093,0,1,1,5.41,8.349A7.093,7.093,0,0,1,425.644,336.583Z" fill="rgba(255,255,255,0.75)" fill-rule="evenodd"/>
      <path id="Path_576" data-name="Path 576" d="M647.749,208.3a7.092,7.092,0,1,1-5.472-8.3,7.092,7.092,0,0,1,5.472,8.3Z" fill="rgba(255,255,255,0.75)" fill-rule="evenodd"/>
      <path id="Path_577" data-name="Path 577" d="M577.307,224.172a7.059,7.059,0,1,1,5.641,8.233,7.059,7.059,0,0,1-5.641-8.233Z" fill="rgba(255,255,255,0.75)" fill-rule="evenodd"/>
      <path id="Path_578" data-name="Path 578" d="M395.88,406.014a7.677,7.677,0,0,1-2.117,15.192,2.18,2.18,0,0,1-2.23-1.867c-.768-3.365-1.684-6.7-2.43-10.073a1.908,1.908,0,0,1,.611-1.673c1.929-.856,3.945-1.509,5.93-2.233C395.723,405.578,395.8,405.8,395.88,406.014Z" fill="rgba(255,255,255,0.75)" fill-rule="evenodd"/>
      <path id="Path_579" data-name="Path 579" d="M406.891,355.916a7.016,7.016,0,1,1,5.747,8.137,7.13,7.13,0,0,1-5.747-8.137Z" fill="rgba(255,255,255,0.75)" fill-rule="evenodd"/>
      <path id="Path_580" data-name="Path 580" d="M553.816,555.112c.207.27.416.535.625.8,1.1,2.092,2.212,4.187,3.6,6.826l-23.728-4.289c1.336-3.939,6.964-7.12,11.911-6.207C548.847,552.729,551.293,554.129,553.816,555.112Z" fill="rgba(255,255,255,0.75)" fill-rule="evenodd"/>
      <path id="Path_581" data-name="Path 581" d="M509.677,256.208a6.953,6.953,0,1,1-8.066,5.545,7.069,7.069,0,0,1,8.066-5.545Z" fill="rgba(255,255,255,0.75)" fill-rule="evenodd"/>
      <path id="Path_582" data-name="Path 582" d="M395.758,369.059a6.751,6.751,0,1,1-7.775,5.465,6.652,6.652,0,0,1,7.775-5.465Z" fill="rgba(255,255,255,0.75)" fill-rule="evenodd"/>
      <path id="Path_583" data-name="Path 583" d="M525.86,250.894a6.635,6.635,0,1,1,7.775-5.106A6.635,6.635,0,0,1,525.86,250.894Z" fill="rgba(255,255,255,0.75)" fill-rule="evenodd"/>
      <path id="Path_584" data-name="Path 584" d="M596.468,205.614a6.6,6.6,0,1,1,5.294,7.678,6.6,6.6,0,0,1-5.294-7.678Z" fill="rgba(255,255,255,0.75)" fill-rule="evenodd"/>
      <path id="Path_585" data-name="Path 585" d="M658.3,194.707a6.55,6.55,0,1,1,7.649-5.3A6.639,6.639,0,0,1,658.3,194.707Z" fill="rgba(255,255,255,0.75)" fill-rule="evenodd"/>
      <path id="Path_586" data-name="Path 586" d="M545.309,231.518a6.274,6.274,0,1,1,7.264-5.022,6.19,6.19,0,0,1-7.264,5.022Z" fill="rgba(255,255,255,0.75)" fill-rule="evenodd"/>
      <path id="Path_587" data-name="Path 587" d="M418.511,477.457c-3.192-5.23-6.3-10.312-9.414-15.418a8.868,8.868,0,0,1,11.457,2.8C423.281,468.738,422.615,473.633,418.511,477.457Z" fill="rgba(255,255,255,0.75)" fill-rule="evenodd"/>
      <path id="Path_588" data-name="Path 588" d="M616.255,187.109a5.978,5.978,0,1,1,4.814,7A6.075,6.075,0,0,1,616.255,187.109Z" fill="rgba(255,255,255,0.75)" fill-rule="evenodd"/>
      <path id="Path_589" data-name="Path 589" d="M426.883,299.586a5.794,5.794,0,1,1,.909,4.363,5.851,5.851,0,0,1-.909-4.363Z" fill="rgba(255,255,255,0.75)" fill-rule="evenodd"/>
      <path id="Path_590" data-name="Path 590" d="M450.8,287.334a5.852,5.852,0,1,1,6.831-4.6,5.789,5.789,0,0,1-6.831,4.6Z" fill="rgba(255,255,255,0.75)" fill-rule="evenodd"/>
      <path id="Path_591" data-name="Path 591" d="M408.279,318.177a5.759,5.759,0,1,1,4.589,6.779,5.65,5.65,0,0,1-4.589-6.779Z" fill="rgba(255,255,255,0.75)" fill-rule="evenodd"/>
      <path id="Path_592" data-name="Path 592" d="M389.136,336.955a5.694,5.694,0,1,1,4.64,6.532,5.625,5.625,0,0,1-4.64-6.532Z" fill="rgba(255,255,255,0.75)" fill-rule="evenodd"/>
      <path id="Path_593" data-name="Path 593" d="M464.993,261.941a5.7,5.7,0,1,1,4.57,6.579,5.63,5.63,0,0,1-4.57-6.579Z" fill="rgba(255,255,255,0.75)" fill-rule="evenodd"/>
      <path id="Path_594" data-name="Path 594" d="M559.469,205.56a5.758,5.758,0,1,1,4.588,6.773,5.645,5.645,0,0,1-4.588-6.773Z" fill="rgba(255,255,255,0.75)" fill-rule="evenodd"/>
      <path id="Path_595" data-name="Path 595" d="M481.443,536.752c4.655-2.81,8.682-3.009,12.7-.758,3.831,2.151,5.7,5.542,5.911,10.558C493.739,543.228,487.857,540.129,481.443,536.752Z" fill="rgba(255,255,255,0.75)" fill-rule="evenodd"/>
      <path id="Path_596" data-name="Path 596" d="M490.722,238.826a5.6,5.6,0,1,1-6.452,4.513,5.712,5.712,0,0,1,6.452-4.513Z" fill="rgba(255,255,255,0.75)" fill-rule="evenodd"/>
      <path id="Path_597" data-name="Path 597" d="M507.6,230.337a5.165,5.165,0,1,1,3.917-.8,5.215,5.215,0,0,1-3.917.8Z" fill="rgba(255,255,255,0.75)" fill-rule="evenodd"/>
      <path id="Path_598" data-name="Path 598" d="M585.329,182.986a5.173,5.173,0,1,1-3.927.747A5.214,5.214,0,0,1,585.329,182.986Z" fill="rgba(255,255,255,0.75)" fill-rule="evenodd"/>
      <path id="Path_599" data-name="Path 599" d="M528.6,201.949a4.76,4.76,0,1,1-5.54,3.822,4.677,4.677,0,0,1,5.54-3.822Z" fill="rgba(255,255,255,0.75)" fill-rule="evenodd"/>
      <path id="Path_600" data-name="Path 600" d="M433.6,258.658a4.22,4.22,0,1,1-4.955,3.249A4.278,4.278,0,0,1,433.6,258.658Z" fill="rgba(255,255,255,0.75)" fill-rule="evenodd"/>
      <path id="Path_601" data-name="Path 601" d="M414.831,277.252a4.278,4.278,0,1,1-4.989,3.487,4.229,4.229,0,0,1,4.989-3.487Z" fill="rgba(255,255,255,0.75)" fill-rule="evenodd"/>
      <path id="Path_602" data-name="Path 602" d="M545.728,192.181a4.277,4.277,0,1,1,4.949-3.547,4.226,4.226,0,0,1-4.949,3.547Z" fill="rgba(255,255,255,0.75)" fill-rule="evenodd"/>
      <path id="Path_603" data-name="Path 603" d="M452.931,239.719a4.13,4.13,0,1,1-4.9,3.009A4.244,4.244,0,0,1,452.931,239.719Z" fill="rgba(255,255,255,0.75)" fill-rule="evenodd"/>
      <path id="Path_604" data-name="Path 604" d="M598.874,166.66c2.869.332,5.671.659,8.644,1.006a4.209,4.209,0,0,1-1.666,5.057,4.319,4.319,0,0,1-5.243.213C598.672,171.714,598.083,169.9,598.874,166.66Z" fill="rgba(255,255,255,0.75)" fill-rule="evenodd"/>
      <path id="Path_605" data-name="Path 605" d="M469.946,228.835a3.834,3.834,0,1,1,4.548-3.025,3.76,3.76,0,0,1-4.548,3.025Z" fill="rgba(255,255,255,0.75)" fill-rule="evenodd"/>
      <path id="Path_606" data-name="Path 606" d="M489.29,210.214a3.762,3.762,0,1,1,4.316-3.039,3.762,3.762,0,0,1-4.316,3.039Z" fill="rgba(255,255,255,0.75)" fill-rule="evenodd"/>
      <path id="Path_607" data-name="Path 607" d="M505.293,186.676a3.477,3.477,0,1,1,2.59,4.084,3.418,3.418,0,0,1-2.59-4.084Z" fill="rgba(255,255,255,0.75)" fill-rule="evenodd"/>
      <path id="Path_608" data-name="Path 608" d="M782.8,366.746a11.237,11.237,0,0,1-.451-15.664C782.5,356.311,782.645,361.293,782.8,366.746Z" fill="rgba(255,255,255,0.75)" fill-rule="evenodd"/>
      <path id="Path_609" data-name="Path 609" d="M568.785,170.343c-.544.442-1.47,1.709-2.633,1.983a4.624,4.624,0,0,1-3.541-.992,4.13,4.13,0,0,1-.931-3.143c.039-.454,1.486-.89,2.351-1.151a10.8,10.8,0,0,1,2.486-.324C568.453,166.6,569.31,167.624,568.785,170.343Z" fill="rgba(255,255,255,0.75)" fill-rule="evenodd"/>
      <path id="Path_610" data-name="Path 610" d="M393.935,304.261c.919-2.814,1.772-5.417,2.625-8.035,2.252,1.053,3.075,2.63,2.576,4.816C398.629,303.269,397.085,304.34,393.935,304.261Z" fill="rgba(255,255,255,0.75)" fill-rule="evenodd"/>
      <path id="Path_611" data-name="Path 611" d="M781.547,388.522l-2.25,12.455c-2.14-4.654-1.393-8.824,1.633-12.619C781.134,388.415,781.341,388.468,781.547,388.522Z" fill="rgba(255,255,255,0.75)" fill-rule="evenodd"/>
      <path id="Path_612" data-name="Path 612" d="M726.5,226.518c2.668,2.893,5.066,5.487,7.542,8.17C729.876,234.652,726.761,231.412,726.5,226.518Z" fill="rgba(255,255,255,0.75)" fill-rule="evenodd"/>
      <path id="Path_613" data-name="Path 613" d="M713.7,215.714q-2.652-2.194-5.307-4.384c.217-.261.431-.522.651-.783l5.226,4.475Z" fill="rgba(255,255,255,0.75)" fill-rule="evenodd"/>
    </g>
    <path id="Path_614" data-name="Path 614" d="M580.705,166.341c-108.8,0-197,88.2-197,197s88.2,197,197,197,197-88.2,197-197S689.505,166.341,580.705,166.341Zm0,392.749c-108.107,0-195.751-87.64-195.751-195.752s87.644-195.75,195.751-195.75,195.75,87.64,195.75,195.75S688.815,559.09,580.705,559.09Z" fill="none" opacity="0.25"/>
  </g>
</svg>
