<svg xmlns="http://www.w3.org/2000/svg" width="216.966" height="49.403" viewBox="0 0 216.966 49.403">
  <path id="line" d="M24.512-165.867C64.047-178.921,176.438-180.834,217.5-179.2c19.24.764,36.587,7.565,11.476,11.766-13,2.175-31.915,3.9-40.615,4.68-21.531,1.943-50.219,5.483-72.608,10.23-17.664,3.745-12.974,2.94,4.654,1.324,14.362-1.316,30.869-2.829,41.814-2.947a65.729,65.729,0,0,1,8.632.373c7.405.939,7.955,3.561,2.384,5.49-12.425,4.306-28.632,6.224-41.592,10.034-7.232,2.126-20.8,6.935-1.367,7.164,3.523.041,6.987-.05,9.294.094l.009.609c-2.079-.174-36.523,1.815-18.088-6.5,11.113-5.013,27.377-7.24,40.532-10.787,7.436-2.006,11.34-3.005.344-2.887-10.2.109-26.427,1.6-40.545,2.89-16.468,1.51-30.348,2.782-32.7.72-5.234-4.591,40.033-11.94,48.984-13.322,17.073-2.636,34.2-4.652,50.564-6.188,6.715-.624,19.731-1.977,30.341-3.035,12.428-1.239,17.46-2.468-1.661-3.228-39.043-1.551-145.829,1.255-183.688,13.754l-9.151-6.9" transform="translate(-24.511 179.696)" fill="#efc997"/>
</svg>
