<svg xmlns="http://www.w3.org/2000/svg" xmlns:xlink="http://www.w3.org/1999/xlink" width="1597" height="798" viewBox="0 0 1597 798">
  <defs>
    <clipPath id="clip-path">
      <rect id="Rectangle_13" data-name="Rectangle 13" width="1597" height="344.154" transform="translate(0)" fill="#fff"/>
    </clipPath>
  </defs>
  <g id="redbox" transform="translate(-78 -256)">
    <g id="dal" transform="translate(78.138 256)">
      <rect id="Rectangle_2" data-name="Rectangle 2" width="1597" height="798" transform="translate(-0.138)" fill="rgba(255,255,255,0)"/>
    </g>
    <g id="logo_arabic" transform="translate(78 483)" clip-path="url(#clip-path)">
      <path id="Path_12" data-name="Path 12" d="M392.234,30.937A11.126,11.126,0,0,0,381.793,21.7c-29.528-1.479-59.477-2.2-89.088-2.2h-4.288c-27.808.061-55.939.785-83.685,2.143a11.205,11.205,0,0,0-10.565,9.782A204.454,204.454,0,0,0,192.6,55.783a200.959,200.959,0,0,0,1.6,25.963,11.3,11.3,0,0,0,10.414,9.841c26.452,1.721,53.316,2.686,79.823,2.838,32.426.211,65.21-.785,97.513-2.9a11.161,11.161,0,0,0,10.228-9.087,142.167,142.167,0,0,0,2.389-26.052V55.42A141.962,141.962,0,0,0,392.234,30.937ZM358.6,70.605A14.732,14.732,0,1,1,373.34,55.873,14.749,14.749,0,0,1,358.6,70.605Z" transform="translate(1129.67 114.694)" fill="#ed3012"/>
      <path id="Path_13" data-name="Path 13" d="M365.752,0H345.963C236.942,0,182.07,16.7,182.07,172.062s64.784,172.092,173.77,172.092,173.406-7.021,173.406-172.092S474.374,0,365.752,0Zm100.83,199.811a23.345,23.345,0,0,1-21.448,19c-29.935,1.967-60.33,2.966-90.416,2.966h-8.3c-26.878-.182-54.053-1.15-80.842-2.905a23.484,23.484,0,0,1-21.723-20.457,214.716,214.716,0,0,1-1.693-27.567,217.349,217.349,0,0,1,1.666-25.9,23.328,23.328,0,0,1,22.053-20.4c28.028-1.392,56.483-2.119,84.566-2.179,31.3-.06,63.056.666,94.353,2.209A23.318,23.318,0,0,1,466.644,143.8a153.56,153.56,0,0,1,2.519,26.629A157.044,157.044,0,0,1,466.582,199.811Z" transform="translate(1067.746 0)" fill="#ed3012"/>
      <path id="Path_14" data-name="Path 14" d="M414.512,39.114a23.249,23.249,0,0,0-21.771-19.17c-31.18-1.54-62.822-2.264-94.009-2.2-27.98.061-56.331.785-84.256,2.174A23.259,23.259,0,0,0,192.5,40.261,217.744,217.744,0,0,0,190.839,66.1a214.985,214.985,0,0,0,1.693,27.5,23.4,23.4,0,0,0,21.64,20.408c26.693,1.751,53.771,2.717,80.546,2.9h8.274c29.976,0,60.254-1,90.086-2.958A23.281,23.281,0,0,0,414.45,94.993a156.871,156.871,0,0,0,2.567-29.314A154.173,154.173,0,0,0,414.512,39.114Zm-9.6,27.623a142.183,142.183,0,0,1-2.388,26.052,11.167,11.167,0,0,1-10.228,9.087c-32.3,2.113-65.093,3.11-97.513,2.9-26.507-.151-53.372-1.117-79.823-2.838A11.3,11.3,0,0,1,204.543,92.1a200.962,200.962,0,0,1-1.6-25.963,204.447,204.447,0,0,1,1.569-24.362,11.205,11.205,0,0,1,10.566-9.782c27.746-1.359,55.877-2.083,83.685-2.143h4.288c29.611,0,59.559.725,89.088,2.2a11.126,11.126,0,0,1,10.442,9.238,141.953,141.953,0,0,1,2.326,24.483Z" transform="translate(1119.328 104.344)" fill="#fff"/>
      <path id="Path_15" data-name="Path 15" d="M229.311,52.105a14.732,14.732,0,1,0-14.737-14.732A14.731,14.731,0,0,0,229.311,52.105Z" transform="translate(1258.97 133.197)" fill="#fff"/>
      <path id="Path_16" data-name="Path 16" d="M18.156,94.385c0,8.483.816,16.845,4.046,24.845,4.77,11.895,13.464,19.593,25.479,23.306a73.228,73.228,0,0,0,39.759,1.3A34.362,34.362,0,0,0,109.931,126.9a32.876,32.876,0,0,0,13.857,13.676,44.514,44.514,0,0,0,17.6,4.89,81.2,81.2,0,0,0,29.162-2.355c16.815-4.679,26.234-15.91,29.464-32.786a89.413,89.413,0,0,0,1.328-17.268q-.045-34.551-.061-69.072a15.011,15.011,0,0,0-.272-2.838c-.785-4.226-2.355-5.917-6.611-6.581a44.01,44.01,0,0,0-12.438-.091c-4.981.634-6.974,3.079-7.306,8.212-.121,1.63-.091,3.261-.091,4.89V96.649a40.578,40.578,0,0,1-1.177,9.9c-1.631,6.672-5.676,11.079-12.378,12.8a47.817,47.817,0,0,1-24.845-.151c-8.121-2.234-11.834-8.181-12.981-16.121A62.114,62.114,0,0,1,122.7,93.9V39.954a41.051,41.051,0,0,0-.362-6.1c-.6-3.894-2.355-5.917-6.189-6.582a38.444,38.444,0,0,0-13.011,0c-3.744.635-5.555,2.627-6.189,6.34a40.063,40.063,0,0,0-.392,6.31V96.951a45.95,45.95,0,0,1-.785,8.121c-1.509,8.242-6.4,13.222-14.582,14.792a49.227,49.227,0,0,1-21.706-.332c-8.6-2.234-13.162-7.849-14.037-16.695-.3-3.109-.423-6.249-.423-9.389V52.15a32.1,32.1,0,0,0-.363-5.887c-.694-3.743-2.385-5.705-6.189-6.309a43.8,43.8,0,0,0-14.038.03,6.6,6.6,0,0,0-5.705,5.374,29.433,29.433,0,0,0-.574,6.7Z" transform="translate(103.427 82.823)" fill="#101010"/>
      <path id="Path_17" data-name="Path 17" d="M61.386,153.237c-11.593-.483-22.823-2.808-33-8.815A50.532,50.532,0,0,1,6.744,119.4C.947,105.177-.049,90.324.857,75.229A76.1,76.1,0,0,1,7.981,46.248c2.083-4.317,5.162-6.46,9.962-6.31,3.683.091,7.366-.332,10.989.453,3.562.754,4.71,2.566,4.106,6.189-.845,5.012-3.321,9.51-4.377,14.461C25.853,74.233,24.676,87.455,28,100.708c3.5,13.948,13.011,21.163,26.717,23.578A91.462,91.462,0,0,0,71.2,125.433H82.035c6.37,0,12.649-.544,18.717-2.657,10.173-3.563,16.121-10.959,18.928-21.132,2.536-9.207,1.932-69.8,1.932-79.276l26.868,52.408c0,12.74.242,25.48-3.14,37.918-5.1,18.717-16.332,31.668-35.261,37.374-8.905,2.687-18.023,3.411-27.23,3.381l-21.464-.181Z" transform="translate(-0.067 131.594)" fill="#101010"/>
      <path id="Path_18" data-name="Path 18" d="M162.9,135.024a86.93,86.93,0,0,0,24.215-2.9,39.245,39.245,0,0,0,16.3-8.514,37.127,37.127,0,0,0,4.619,3.261c7.64,4.65,16.093,6.732,24.82,7.547,3.8.362,7.606.573,11.405.6h50.687a89.937,89.937,0,0,0,24.483-2.9c10.421-2.777,18.99-8.121,24.82-17.329,4.495-7.125,6.518-15.124,6.973-23.427l.3-48.453c0-2.234-.124-4.5-.275-6.732-.268-4.046-2.382-6.491-6.339-7.094a40.522,40.522,0,0,0-10.985-.272c-2.086.242-4.2.272-6.009,1.6-3.049,2.234-3.262,5.585-3.262,8.845V83.22c0,2.053,0,4.106-.151,6.128-.571,10.084-5.341,16.544-14.551,18.808a61.679,61.679,0,0,1-14.971,1.781H244.289a64.831,64.831,0,0,1-14.4-1.66c-7.461-1.661-12.438-6.22-14.193-13.887q-.454-1.993-.723-3.985L209.3,30.268c-.241-2.234-.537-4.5-.9-6.732-.668-4.045-3.022-6.49-7.034-7.094-1-.151-1.962-.271-2.925-.332a38.14,38.14,0,0,0-8.095.061c-2.051.242-4.164.271-5.857,1.6-2.836,2.234-2.719,5.585-2.382,8.845l5.823,62.22a22.739,22.739,0,0,1,0,4.981c-.874,7.517-5.011,12.407-12.589,14.34a59.577,59.577,0,0,1-14.792,1.781H125.281c-3.256,0-6.58.211-8.508,3.261-1.184,1.811-1,3.924-1.032,6.008a30.375,30.375,0,0,0,1.177,9.268,8.58,8.58,0,0,0,7.7,6.581l38.339-.061Z" transform="translate(677.451 93.684)" fill="#101010"/>
      <path id="Path_19" data-name="Path 19" d="M203.951,111.777c-.42,12.287-1.659,24.453-5.617,36.2a87.377,87.377,0,0,1-27.016,39.668c-.269.211-.544.423-.785.634-5.135,4.347-7.454,4.136-11.591-1.147a50.233,50.233,0,0,1-5.589-8.785c-2.2-4.469-1.872-6.793,1.721-10.234a68.241,68.241,0,0,0,10.9-12.921c6.126-9.872,9.058-20.77,10.5-32.151a171.711,171.711,0,0,0,1.149-21.616l.062-75.442a18.3,18.3,0,0,1,.392-3.653c.688-3.5,2.595-5.4,6.091-5.917a44.968,44.968,0,0,1,13.043-.03c3.717.543,5.706,2.415,6.463,6.067a33.242,33.242,0,0,1,.454,6.913l-.241,82.386Z" transform="translate(890.678 93.655)" fill="#101010"/>
      <path id="Path_20" data-name="Path 20" d="M161.6,70.543a17.424,17.424,0,0,1-17.359-17.751,17.785,17.785,0,0,1,17.628-17.419c9.45.061,17.689,8.393,17.572,17.781A17.769,17.769,0,0,1,161.6,70.543Z" transform="translate(845.203 208.1)" fill="#101010"/>
      <path id="Path_21" data-name="Path 21" d="M121.825,70.543a17.428,17.428,0,0,1-17.359-17.751A17.791,17.791,0,0,1,122.1,35.373c9.451.061,17.69,8.393,17.566,17.781A17.76,17.76,0,0,1,121.825,70.543Z" transform="translate(611.174 208.1)" fill="#101010"/>
      <path id="Path_22" data-name="Path 22" d="M155.316,70.543a17.424,17.424,0,0,1-17.359-17.751,17.785,17.785,0,0,1,17.628-17.419c9.451.061,17.69,8.393,17.572,17.781A17.769,17.769,0,0,1,155.316,70.543Z" transform="translate(808.205 208.1)" fill="#101010"/>
      <path id="Path_23" data-name="Path 23" d="M212.546,110.494a92.132,92.132,0,0,1,18.657,1.962c5.4,1.3,9.992,3.532,13.1,7.427a19.083,19.083,0,0,1,3.411,7.125c.151.483,2.9,10.6-2.355,18.868a23.359,23.359,0,0,1-2.566,3.261,21.52,21.52,0,0,1-7.246,4.74,28.494,28.494,0,0,1-10.656,1.932l-127.428.09a63.074,63.074,0,0,1-14.973-1.781c-9.208-2.295-13.977-8.755-14.551-18.808-.091-1.54-.121-3.08-.151-4.589V59.9a14.851,14.851,0,0,0-.845-5.8.112.112,0,0,0-.03-.09,7.237,7.237,0,0,0-2.385-2.928c-1.812-1.328-3.894-1.359-6.008-1.6a41.807,41.807,0,0,0-10.989.272A7.557,7.557,0,0,0,43.4,51.535a5.9,5.9,0,0,0-.423.453,7.916,7.916,0,0,0-1.812,4.8c-.03.6-.09,1.177-.09,1.721v.3c-.091,1.6-.151,3.2-.151,4.769v36.559c.151,9.329-.271,20.468.091,31.849.03,1.781.12,3.593.211,5.374.453,8.3,2.475,16.3,6.974,23.427a36.729,36.729,0,0,0,6.551,7.789,43.459,43.459,0,0,0,18.264,9.54A89.948,89.948,0,0,0,97.5,180.986H218.312c9.3-.211,18.476-1.269,27.321-4.378,8.905-3.11,16.121-7.819,21.313-14.461a42.384,42.384,0,0,0,7.547-16.181,52.315,52.315,0,0,0,0-25.841c-1.147-4.469-3.2-12.016-9.539-19.08a39.488,39.488,0,0,0-10.446-8.212,60.95,60.95,0,0,0-19.14-6.4,95.613,95.613,0,0,0-15.819-1.328l-56.484-.423L147.1,84.532s-8.453.453-13.223-4.951c-.211-.211-4.83-5.8-3.2-12.468,1.359-5.585,6.159-8.634,10.385-10.9a37.154,37.154,0,0,1,6.762-2.989L208.772,34.75c3.11-.935,6.249-2.113,7.517-5.675.725-2.143.151-4.136-.211-6.219a41.17,41.17,0,0,0-3.442-10.446C210.916,8.788,207.958,7.49,204,8.4c-2.174.483-4.377,1.057-6.52,1.691L146.644,25.633c-3.744,1.207-6.521,2.143-7.759,2.627-9.479,3.834-18.476,8.422-25.721,15.819a35.6,35.6,0,0,0-7.577,10.778c-2.657,6.31-2.295,13.344-2.174,17.057V72c.09,2.295.694,17.872,10.566,28.438,9.962,10.687,30.249,10.113,33.026,10.113h65.661Z" transform="translate(237.003 47.754)" fill="#101010"/>
      <path id="Path_24" data-name="Path 24" d="M170.147,128.952a64.871,64.871,0,0,1-2.234,17.208.179.179,0,0,1-.03.12c-2.566,9.329-8.724,14.521-17.871,16.423-12.831,2.687-25.721,2.174-38.612.242-6.1-.906-11.864-3.08-17.811-4.438-4.015-.906-6.249.634-7.216,4.619-.754,3.14-.513,6.37-.452,9.54.12,7.487,1.9,9.872,8.966,12.226a112.071,112.071,0,0,0,36.831,5.374c11.834-.091,23.577-1.117,34.717-5.434,10.415-4.015,18.506-10.778,23.729-20.8,4.951-9.51,6.792-19.713,7.4-30.189H250a89.938,89.938,0,0,0,24.483-2.9c10.414-2.777,18.99-8.121,24.814-17.329,4.5-7.124,6.525-15.124,6.979-23.427l.3-48.453c0-2.234-.117-4.5-.268-6.732-.268-4.045-2.382-6.491-6.339-7.094a40.566,40.566,0,0,0-10.992-.272c-2.079.242-4.192.272-6,1.6-3.049,2.234-3.263,5.585-3.263,8.845V82.038c0,2.053,0,4.106-.151,6.129C278.98,98.25,274.21,104.711,265,106.974a61.684,61.684,0,0,1-14.971,1.781H198.041l-.12-25.932c0-11.352-1.026-22.552-4.8-33.389-5.826-16.785-17.63-27.05-34.777-30.944A94.054,94.054,0,0,0,113,19.306c-13.615,3.623-24,11.5-29.042,24.936A77.124,77.124,0,0,0,78.916,73.5V84.514a80.443,80.443,0,0,0,3.713,22.038c2.747,8.755,8.3,16.665,16.513,21.072a53.766,53.766,0,0,0,5.705,2.627,54.562,54.562,0,0,0,19.895,3.532H150.1a6.662,6.662,0,0,0,6.642-6.642v-11.8c0-3.653-4.649-6.642-9.66-6.642H144.4c-6.763,0-13.313.181-19.955-1.117-5.374-1.057-9.329-2.928-12.136-5.886-1.359-1.449-3.592-3.925-5.071-11.774-2.627-14.129-.574-27.985.452-31.548,1.661-5.8,3.412-8.453,5.434-10.445a19.732,19.732,0,0,1,9.963-5.072,59.141,59.141,0,0,1,28.317.634c7.819,2.114,12.649,7.306,15.276,14.823a72.241,72.241,0,0,1,3.472,21.465v49.178Z" transform="translate(460.744 94.778)" fill="#101010"/>
    </g>
  </g>
</svg>
